<svg width="24" height="24" viewBox="0 0 24 24" fill="none" xmlns="http://www.w3.org/2000/svg">
<g clip-path="url(#clip0_39_3825)">
<path opacity="0.1" d="M17.6961 13.3031C20.8481 12.8256 24 15.2134 24 18.3653C24 21.3262 21.5167 23.8096 18.5557 23.8096C15.5948 23.8096 13.5891 21.2307 13.3025 18.1743C12.825 12.7301 13.7801 9.19607 15.6904 6.04413C17.123 3.84733 19.6064 1.55501 22.2808 0.790906C23.7135 0.408852 23.6179 0.50437 23.6179 1.93707V2.98771C23.6179 4.51592 23.7135 4.51592 22.2808 4.99349C19.5109 6.04413 17.6961 8.81402 17.6961 13.3031ZM4.51531 13.3031C7.66724 12.8256 10.8192 15.2134 10.8192 18.3653C10.8192 21.3262 8.33583 23.8096 5.37493 23.8096C2.41402 23.8096 0.40824 21.2307 0.1217 18.1743C-0.355866 12.7301 0.599267 9.19607 2.50953 6.04413C3.94223 3.84733 6.42557 1.55501 9.09994 0.790906C10.5326 0.408852 10.4371 0.50437 10.4371 1.93707V2.98771C10.4371 4.51592 10.5326 4.51592 9.09994 4.99349C6.33006 6.04413 4.51531 8.81402 4.51531 13.3031Z" fill="black"/>
</g>
<defs>
<clipPath id="clip0_39_3825">
<rect width="24" height="24" fill="white"/>
</clipPath>
</defs>
</svg>
